<?xml version="1.0" encoding="UTF-8" standalone="no"?>
<!DOCTYPE svg PUBLIC "-//W3C//DTD SVG 1.1//EN" "http://www.w3.org/Graphics/SVG/1.1/DTD/svg11.dtd">
<svg xmlns="http://www.w3.org/2000/svg" version="1.1" viewBox="0.00 0.00 405.00 411.00">
<g stroke-width="2.00" fill="none" stroke-linecap="butt">
<path stroke="#ffb380" vector-effect="non-scaling-stroke" d="
  M 231.74 240.19
  Q 231.76 226.81 231.77 213.44
  C 231.79 201.56 209.29 203.18 209.28 212.06
  Q 209.22 250.28 209.27 288.50
  C 209.28 293.95 210.28 297.55 215.95 298.57
  C 222.44 299.75 231.70 299.44 231.69 290.48
  Q 231.66 277.04 231.81 263.56
  Q 231.81 262.91 232.24 263.39
  Q 244.74 277.46 257.11 291.65
  C 261.27 296.42 265.53 302.67 271.74 298.99
  C 276.14 296.39 283.81 290.41 280.50 284.76
  Q 277.58 279.77 267.95 270.29
  Q 258.83 261.31 249.74 252.22
  Q 249.35 251.83 249.75 251.45
  Q 263.13 238.85 275.73 225.48
  C 278.81 222.20 283.07 216.79 280.41 212.81
  C 276.60 207.14 268.01 199.61 261.47 207.23
  Q 247.09 224.00 232.23 240.38
  Q 231.74 240.92 231.74 240.19"
/>
<path stroke="#ffb380" vector-effect="non-scaling-stroke" d="
  M 175.27 271.91
  C 208.61 262.64 209.43 216.67 175.99 206.66
  Q 171.24 205.24 160.89 205.23
  Q 144.20 205.21 136.77 205.32
  C 130.04 205.42 128.33 209.34 128.26 215.58
  Q 127.93 244.02 128.35 290.50
  C 128.39 294.40 129.65 296.89 133.60 298.02
  C 139.86 299.82 150.73 299.74 150.72 290.48
  Q 150.70 282.13 150.78 273.59
  Q 150.78 273.03 151.34 273.03
  C 159.06 272.94 168.24 273.87 175.27 271.91"
/>
<path stroke="#ffb380" vector-effect="non-scaling-stroke" d="
  M 182.94 239.99
  A 19.93 19.93 0.0 0 0 163.01 220.06
  A 19.93 19.93 0.0 0 0 143.08 239.99
  A 19.93 19.93 0.0 0 0 163.01 259.92
  A 19.93 19.93 0.0 0 0 182.94 239.99"
/>
<path stroke="#ffb380" vector-effect="non-scaling-stroke" d="
  M 166.7873 376.8657
  A 1.76 1.69 60.1 0 0 167.3751 374.4976
  A 1.76 1.69 60.1 0 0 165.0327 373.8143
  A 1.76 1.69 60.1 0 0 164.4449 376.1824
  A 1.76 1.69 60.1 0 0 166.7873 376.8657"
/>
<path stroke="#ffb380" vector-effect="non-scaling-stroke" d="
  M 213.2226 376.9817
  A 1.71 1.62 75.0 0 0 214.3448 374.9107
  A 1.71 1.62 75.0 0 0 212.3374 373.6783
  A 1.71 1.62 75.0 0 0 211.2152 375.7493
  A 1.71 1.62 75.0 0 0 213.2226 376.9817"
/>
<path stroke="#ffb380" vector-effect="non-scaling-stroke" d="
  M 269.56 382.76
  C 264.99 378.92 258.74 381.40 257.88 386.91
  C 256.81 393.68 263.63 399.49 269.30 394.56
  Q 269.87 394.06 270.06 394.80
  L 270.33 395.85
  Q 270.44 396.27 270.87 396.26
  L 272.12 396.22
  A 0.65 0.64 89.6 0 0 272.75 395.57
  L 272.75 374.47
  Q 272.75 373.61 271.90 373.75
  L 270.77 373.94
  Q 270.28 374.03 270.28 374.52
  L 270.20 382.47
  Q 270.19 383.29 269.56 382.76"
/>
<path stroke="#ffb380" vector-effect="non-scaling-stroke" d="
  M 83.04 388.48
  C 86.00 388.59 89.68 388.85 92.10 387.29
  C 97.33 383.93 95.82 374.98 89.33 374.11
  Q 85.88 373.65 80.33 374.14
  Q 79.66 374.20 79.66 374.88
  L 79.59 395.42
  A 0.83 0.83 0.0 0 0 80.42 396.25
  L 81.50 396.25
  A 1.00 1.00 0.0 0 0 82.50 395.25
  L 82.50 389.00
  Q 82.50 388.46 83.04 388.48"
/>
<path stroke="#ffb380" vector-effect="non-scaling-stroke" d="
  M 195.67 387.66
  L 205.02 396.29
  Q 205.56 396.78 206.06 396.25
  L 206.94 395.33
  A 0.77 0.76 -46.8 0 0 206.91 394.23
  L 197.43 385.54
  A 0.60 0.60 0.0 0 1 197.43 384.65
  L 206.87 376.11
  Q 207.41 375.62 206.92 375.07
  L 206.04 374.07
  A 0.82 0.82 0.0 0 0 204.87 374.01
  L 195.72 382.51
  A 0.43 0.43 0.0 0 1 194.99 382.19
  Q 195.03 378.79 194.98 375.39
  Q 194.97 374.66 194.62 374.35
  Q 194.15 373.93 193.38 374.00
  A 1.52 1.52 0.0 0 0 192.00 375.51
  L 192.00 395.45
  Q 192.00 395.96 192.50 396.05
  L 193.73 396.28
  A 1.08 1.08 0.0 0 0 195.00 395.22
  L 195.00 387.95
  Q 195.00 387.04 195.67 387.66"
/>
<path stroke="#ffb380" vector-effect="non-scaling-stroke" d="
  M 133.75 381.25
  L 132.12 381.25
  Q 131.50 381.25 131.50 381.88
  L 131.50 383.17
  Q 131.50 384.03 132.36 383.91
  L 133.55 383.73
  A 0.58 0.57 -4.9 0 1 134.21 384.28
  C 134.38 388.95 132.41 397.33 140.39 396.13
  A 1.09 1.09 0.0 0 0 141.12 394.41
  Q 140.29 393.26 138.74 393.52
  A 1.26 1.26 0.0 0 1 137.28 392.29
  L 137.19 384.43
  Q 137.19 383.80 137.81 383.82
  L 140.81 383.88
  A 0.38 0.38 0.0 0 0 141.13 383.73
  Q 141.96 382.75 141.18 381.60
  Q 140.94 381.25 140.52 381.25
  L 137.63 381.25
  A 0.60 0.60 0.0 0 1 137.03 380.63
  L 137.17 377.05
  Q 137.20 376.34 136.61 375.94
  Q 135.61 375.24 134.62 375.84
  A 0.76 0.74 -15.8 0 0 134.25 376.48
  L 134.25 380.75
  Q 134.25 381.25 133.75 381.25"
/>
<path stroke="#ffb380" vector-effect="non-scaling-stroke" d="
  M 102.76 381.67
  L 102.12 381.03
  A 1.22 1.22 0.0 0 0 100.03 381.88
  Q 99.95 388.13 100.02 394.70
  Q 100.03 395.67 100.48 396.02
  Q 101.04 396.47 102.04 396.21
  A 0.96 0.96 0.0 0 0 102.75 395.28
  L 102.75 385.99
  Q 102.75 385.48 103.05 385.06
  Q 105.09 382.20 108.34 383.96
  A 0.65 0.64 -68.0 0 0 109.26 383.56
  L 109.64 382.22
  Q 109.87 381.40 109.08 381.11
  Q 105.96 379.94 103.64 381.73
  Q 103.18 382.09 102.76 381.67"
/>
<path stroke="#ffb380" vector-effect="non-scaling-stroke" d="
  M 128.59 388.56
  A 7.87 7.87 0.0 0 0 120.72 380.69
  A 7.87 7.87 0.0 0 0 112.85 388.56
  A 7.87 7.87 0.0 0 0 120.72 396.43
  A 7.87 7.87 0.0 0 0 128.59 388.56"
/>
<path stroke="#ffb380" vector-effect="non-scaling-stroke" d="
  M 148.67 389.54
  Q 152.89 389.46 157.50 389.38
  Q 159.48 389.35 159.71 387.51
  C 160.56 380.60 151.32 379.03 147.30 382.84
  C 143.65 386.28 144.47 392.49 148.58 395.18
  C 151.08 396.81 156.64 397.11 158.75 394.52
  A 1.13 1.13 0.0 0 0 157.32 392.82
  Q 151.48 396.09 148.04 390.70
  A 0.76 0.75 -16.8 0 1 148.67 389.54"
/>
<path stroke="#ffb380" vector-effect="non-scaling-stroke" d="
  M 175.49 382.44
  Q 175.82 380.82 174.10 380.74
  A 1.29 1.29 0.0 0 0 172.75 382.03
  L 172.75 395.24
  Q 172.75 395.77 173.26 395.90
  L 174.66 396.28
  Q 175.36 396.47 175.42 395.75
  Q 175.75 391.91 175.78 388.08
  C 175.80 384.22 179.43 381.84 182.67 384.35
  C 185.55 386.59 182.75 394.72 184.49 396.03
  Q 185.11 396.50 186.18 396.17
  A 0.77 0.76 -7.6 0 0 186.72 395.47
  C 186.90 390.16 188.17 380.17 179.58 380.86
  C 178.13 380.98 177.16 381.99 176.02 382.78
  Q 175.33 383.26 175.49 382.44"
/>
<path stroke="#ffb380" vector-effect="non-scaling-stroke" d="
  M 214.24 381.93
  A 1.12 1.12 0.0 0 0 213.12 380.81
  L 212.62 380.81
  A 1.12 1.12 0.0 0 0 211.50 381.93
  L 211.50 395.15
  A 1.12 1.12 0.0 0 0 212.62 396.27
  L 213.12 396.27
  A 1.12 1.12 0.0 0 0 214.24 395.15
  L 214.24 381.93"
/>
<path stroke="#ffb380" vector-effect="non-scaling-stroke" d="
  M 222.25 382.46
  L 222.25 381.53
  Q 222.25 380.79 221.52 380.86
  L 220.34 380.96
  Q 219.76 381.01 219.76 381.59
  Q 219.73 388.20 219.75 394.82
  Q 219.76 395.78 220.13 396.08
  Q 220.65 396.49 221.73 396.15
  Q 222.48 395.92 222.49 395.13
  C 222.51 392.53 221.89 387.32 223.32 385.24
  C 225.26 382.39 230.96 383.18 230.78 386.99
  Q 230.59 391.25 230.93 395.18
  A 1.36 1.36 0.0 0 0 233.64 395.20
  C 234.11 390.72 234.62 381.60 228.24 380.75
  Q 225.49 380.39 222.82 382.71
  Q 222.25 383.21 222.25 382.46"
/>
<path stroke="#ffb380" vector-effect="non-scaling-stroke" d="
  M 249.07 382.42
  C 239.63 376.04 232.94 391.92 243.50 395.77
  Q 246.50 396.86 249.30 394.26
  Q 249.67 393.91 249.78 394.41
  C 250.86 399.46 245.47 401.78 241.81 398.54
  Q 241.27 398.06 240.72 398.53
  L 239.84 399.29
  A 0.59 0.59 0.0 0 0 239.76 400.11
  C 242.55 403.51 248.55 403.32 251.05 400.04
  C 253.74 396.52 252.79 385.95 252.46 381.57
  A 1.06 1.06 0.0 0 0 250.54 381.04
  L 249.62 382.32
  Q 249.40 382.64 249.07 382.42"
/>
<path stroke="#ffb380" vector-effect="non-scaling-stroke" d="
  M 292.80 388.58
  A 7.88 7.88 0.0 0 0 284.92 380.70
  A 7.88 7.88 0.0 0 0 277.04 388.58
  A 7.88 7.88 0.0 0 0 284.92 396.46
  A 7.88 7.88 0.0 0 0 292.80 388.58"
/>
<path stroke="#ffb380" vector-effect="non-scaling-stroke" d="
  M 299.75 382.25
  Q 299.92 380.64 298.18 380.77
  A 1.01 1.00 -2.2 0 0 297.25 381.77
  L 297.25 395.47
  A 0.71 0.71 0.0 0 0 297.86 396.17
  L 298.59 396.27
  A 1.22 1.22 0.0 0 0 299.98 395.06
  C 299.98 392.50 299.14 384.99 302.17 383.87
  C 309.82 381.02 305.38 393.05 307.25 395.78
  Q 307.79 396.57 309.16 396.17
  Q 309.77 396.00 309.76 395.37
  C 309.70 392.31 308.66 384.74 312.65 383.66
  C 318.29 382.14 316.66 392.17 316.87 395.55
  A 0.62 0.60 3.1 0 0 317.39 396.11
  L 318.62 396.29
  Q 319.41 396.41 319.44 395.61
  C 319.63 389.28 321.04 379.39 312.30 381.01
  Q 311.24 381.21 309.45 383.48
  Q 309.10 383.93 308.76 383.48
  Q 305.07 378.54 300.32 382.55
  A 0.35 0.35 0.0 0 1 299.75 382.25"
/>
<path stroke="#ffb380" vector-effect="non-scaling-stroke" d="
  M 167.25 381.88
  A 0.91 0.91 0.0 0 0 166.34 380.97
  L 165.42 380.97
  A 0.91 0.91 0.0 0 0 164.51 381.88
  L 164.51 395.30
  A 0.91 0.91 0.0 0 0 165.42 396.21
  L 166.34 396.21
  A 0.91 0.91 0.0 0 0 167.25 395.30
  L 167.25 381.88"
/>
<path stroke="#ffb380" vector-effect="non-scaling-stroke" d="
  M 265.4915 393.5627
  A 5.02 4.74 86.9 0 0 269.9531 388.2937
  A 5.02 4.74 86.9 0 0 264.9485 383.5373
  A 5.02 4.74 86.9 0 0 260.4869 388.8063
  A 5.02 4.74 86.9 0 0 265.4915 393.5627"
/>
<path stroke="#ffb380" vector-effect="non-scaling-stroke" d="
  M 82.49 377.41
  L 82.49 385.07
  A 0.43 0.43 0.0 0 0 82.92 385.50
  L 88.22 385.50
  A 4.05 3.85 -0.0 0 0 92.27 381.65
  L 92.27 380.83
  A 4.05 3.85 0.0 0 0 88.22 376.98
  L 82.92 376.98
  A 0.43 0.43 0.0 0 0 82.49 377.41"
/>
<path stroke="#ffb380" vector-effect="non-scaling-stroke" d="
  M 125.75 388.54
  A 5.05 5.05 0.0 0 0 120.70 383.49
  A 5.05 5.05 0.0 0 0 115.65 388.54
  A 5.05 5.05 0.0 0 0 120.70 393.59
  A 5.05 5.05 0.0 0 0 125.75 388.54"
/>
<path stroke="#ffb380" vector-effect="non-scaling-stroke" d="
  M 148.32 387.55
  L 157.13 387.39
  A 0.17 0.17 0.0 0 0 157.30 387.22
  L 157.30 387.15
  A 3.90 3.74 -1.0 0 0 153.34 383.48
  L 151.98 383.50
  A 3.90 3.74 -1.0 0 0 148.14 387.31
  L 148.14 387.38
  A 0.17 0.17 0.0 0 0 148.32 387.55"
/>
<path stroke="#ffb380" vector-effect="non-scaling-stroke" d="
  M 245.5035 393.3273
  A 4.93 4.45 88.1 0 0 249.7876 388.2525
  A 4.93 4.45 88.1 0 0 245.1765 383.4727
  A 4.93 4.45 88.1 0 0 240.8924 388.5475
  A 4.93 4.45 88.1 0 0 245.5035 393.3273"
/>
<path stroke="#ffb380" vector-effect="non-scaling-stroke" d="
  M 289.93 388.57
  A 5.06 5.06 0.0 0 0 284.87 383.51
  A 5.06 5.06 0.0 0 0 279.81 388.57
  A 5.06 5.06 0.0 0 0 284.87 393.63
  A 5.06 5.06 0.0 0 0 289.93 388.57"
/>
</g>
<path fill="#ff6600" d="
  M 200.55 0.00
  L 204.04 0.00
  C 225.03 2.91 234.73 26.54 219.91 42.41
  C 210.34 52.66 193.80 52.31 183.74 42.01
  C 176.10 34.20 175.17 22.14 180.38 12.72
  Q 186.47 1.71 200.55 0.00
  Z"
/>
<path fill="#ff6600" d="
  M 299.02 174.14
  Q 320.30 168.79 341.80 163.42
  Q 356.01 159.88 361.44 160.05
  C 379.92 160.63 393.77 177.52 391.53 196.25
  Q 391.16 199.28 389.29 205.89
  Q 372.72 264.36 355.92 322.76
  C 351.42 338.40 347.37 347.69 329.69 347.71
  Q 205.47 347.79 81.25 347.74
  C 59.27 347.73 56.28 338.53 51.01 319.86
  Q 34.94 263.02 18.83 206.18
  C 17.30 200.77 15.70 194.87 16.12 189.43
  C 17.40 172.53 32.33 159.50 48.97 159.89
  Q 52.92 159.98 68.56 163.74
  Q 89.44 168.76 110.29 173.99
  Q 111.58 174.32 112.42 173.27
  Q 145.68 131.79 178.76 90.30
  C 189.40 76.96 208.71 72.45 222.86 82.46
  Q 226.86 85.28 235.62 96.06
  Q 266.74 134.37 297.98 173.79
  A 1.02 1.01 63.4 0 0 299.02 174.14
  Z
  M 231.74 240.19
  Q 231.76 226.81 231.77 213.44
  C 231.79 201.56 209.29 203.18 209.28 212.06
  Q 209.22 250.28 209.27 288.50
  C 209.28 293.95 210.28 297.55 215.95 298.57
  C 222.44 299.75 231.70 299.44 231.69 290.48
  Q 231.66 277.04 231.81 263.56
  Q 231.81 262.91 232.24 263.39
  Q 244.74 277.46 257.11 291.65
  C 261.27 296.42 265.53 302.67 271.74 298.99
  C 276.14 296.39 283.81 290.41 280.50 284.76
  Q 277.58 279.77 267.95 270.29
  Q 258.83 261.31 249.74 252.22
  Q 249.35 251.83 249.75 251.45
  Q 263.13 238.85 275.73 225.48
  C 278.81 222.20 283.07 216.79 280.41 212.81
  C 276.60 207.14 268.01 199.61 261.47 207.23
  Q 247.09 224.00 232.23 240.38
  Q 231.74 240.92 231.74 240.19
  Z
  M 175.27 271.91
  C 208.61 262.64 209.43 216.67 175.99 206.66
  Q 171.24 205.24 160.89 205.23
  Q 144.20 205.21 136.77 205.32
  C 130.04 205.42 128.33 209.34 128.26 215.58
  Q 127.93 244.02 128.35 290.50
  C 128.39 294.40 129.65 296.89 133.60 298.02
  C 139.86 299.82 150.73 299.74 150.72 290.48
  Q 150.70 282.13 150.78 273.59
  Q 150.78 273.03 151.34 273.03
  C 159.06 272.94 168.24 273.87 175.27 271.91
  Z"
/>
<path fill="#ff6600" d="
  M 0.00 114.19
  L 0.00 111.19
  C 2.56 90.36 25.76 80.52 41.95 94.60
  Q 47.53 99.46 49.25 106.87
  C 54.16 128.11 32.20 145.44 12.85 134.69
  Q 1.48 128.38 0.00 114.19
  Z"
/>
<path fill="#ff6600" d="
  M 405.00 111.84
  L 405.00 114.81
  Q 402.41 131.43 388.43 136.39
  C 365.00 144.71 345.58 117.94 359.96 98.20
  C 374.01 78.90 403.10 88.75 405.00 111.84
  Z"
/>
<path fill="#ffffff" d="
  M 232.23 240.38
  Q 247.09 224.00 261.47 207.23
  C 268.01 199.61 276.60 207.14 280.41 212.81
  C 283.07 216.79 278.81 222.20 275.73 225.48
  Q 263.13 238.85 249.75 251.45
  Q 249.35 251.83 249.74 252.22
  Q 258.83 261.31 267.95 270.29
  Q 277.58 279.77 280.50 284.76
  C 283.81 290.41 276.14 296.39 271.74 298.99
  C 265.53 302.67 261.27 296.42 257.11 291.65
  Q 244.74 277.46 232.24 263.39
  Q 231.81 262.91 231.81 263.56
  Q 231.66 277.04 231.69 290.48
  C 231.70 299.44 222.44 299.75 215.95 298.57
  C 210.28 297.55 209.28 293.95 209.27 288.50
  Q 209.22 250.28 209.28 212.06
  C 209.29 203.18 231.79 201.56 231.77 213.44
  Q 231.76 226.81 231.74 240.19
  Q 231.74 240.92 232.23 240.38
  Z"
/>
<path fill="#ffffff" d="
  M 175.99 206.66
  C 209.43 216.67 208.61 262.64 175.27 271.91
  C 168.24 273.87 159.06 272.94 151.34 273.03
  Q 150.78 273.03 150.78 273.59
  Q 150.70 282.13 150.72 290.48
  C 150.73 299.74 139.86 299.82 133.60 298.02
  C 129.65 296.89 128.39 294.40 128.35 290.50
  Q 127.93 244.02 128.26 215.58
  C 128.33 209.34 130.04 205.42 136.77 205.32
  Q 144.20 205.21 160.89 205.23
  Q 171.24 205.24 175.99 206.66
  Z
  M 182.94 239.99
  A 19.93 19.93 0.0 0 0 163.01 220.06
  A 19.93 19.93 0.0 0 0 143.08 239.99
  A 19.93 19.93 0.0 0 0 163.01 259.92
  A 19.93 19.93 0.0 0 0 182.94 239.99
  Z"
/>
<circle fill="#ff6600" cx="163.01" cy="239.99" r="19.93"/>
<path fill="#ff6600" d="
  M 343.36 364.89
  C 355.58 376.20 354.52 401.42 337.68 408.25
  Q 334.12 409.69 326.00 409.70
  Q 200.25 409.96 74.50 410.31
  C 49.41 410.38 45.68 367.37 69.48 360.95
  Q 72.02 360.26 78.09 360.25
  Q 203.25 360.01 328.41 359.78
  C 334.70 359.76 339.02 360.88 343.36 364.89
  Z
  M 166.7873 376.8657
  A 1.76 1.69 60.1 0 0 167.3751 374.4976
  A 1.76 1.69 60.1 0 0 165.0327 373.8143
  A 1.76 1.69 60.1 0 0 164.4449 376.1824
  A 1.76 1.69 60.1 0 0 166.7873 376.8657
  Z
  M 213.2226 376.9817
  A 1.71 1.62 75.0 0 0 214.3448 374.9107
  A 1.71 1.62 75.0 0 0 212.3374 373.6783
  A 1.71 1.62 75.0 0 0 211.2152 375.7493
  A 1.71 1.62 75.0 0 0 213.2226 376.9817
  Z
  M 269.56 382.76
  C 264.99 378.92 258.74 381.40 257.88 386.91
  C 256.81 393.68 263.63 399.49 269.30 394.56
  Q 269.87 394.06 270.06 394.80
  L 270.33 395.85
  Q 270.44 396.27 270.87 396.26
  L 272.12 396.22
  A 0.65 0.64 89.6 0 0 272.75 395.57
  L 272.75 374.47
  Q 272.75 373.61 271.90 373.75
  L 270.77 373.94
  Q 270.28 374.03 270.28 374.52
  L 270.20 382.47
  Q 270.19 383.29 269.56 382.76
  Z
  M 83.04 388.48
  C 86.00 388.59 89.68 388.85 92.10 387.29
  C 97.33 383.93 95.82 374.98 89.33 374.11
  Q 85.88 373.65 80.33 374.14
  Q 79.66 374.20 79.66 374.88
  L 79.59 395.42
  A 0.83 0.83 0.0 0 0 80.42 396.25
  L 81.50 396.25
  A 1.00 1.00 0.0 0 0 82.50 395.25
  L 82.50 389.00
  Q 82.50 388.46 83.04 388.48
  Z
  M 195.67 387.66
  L 205.02 396.29
  Q 205.56 396.78 206.06 396.25
  L 206.94 395.33
  A 0.77 0.76 -46.8 0 0 206.91 394.23
  L 197.43 385.54
  A 0.60 0.60 0.0 0 1 197.43 384.65
  L 206.87 376.11
  Q 207.41 375.62 206.92 375.07
  L 206.04 374.07
  A 0.82 0.82 0.0 0 0 204.87 374.01
  L 195.72 382.51
  A 0.43 0.43 0.0 0 1 194.99 382.19
  Q 195.03 378.79 194.98 375.39
  Q 194.97 374.66 194.62 374.35
  Q 194.15 373.93 193.38 374.00
  A 1.52 1.52 0.0 0 0 192.00 375.51
  L 192.00 395.45
  Q 192.00 395.96 192.50 396.05
  L 193.73 396.28
  A 1.08 1.08 0.0 0 0 195.00 395.22
  L 195.00 387.95
  Q 195.00 387.04 195.67 387.66
  Z
  M 133.75 381.25
  L 132.12 381.25
  Q 131.50 381.25 131.50 381.88
  L 131.50 383.17
  Q 131.50 384.03 132.36 383.91
  L 133.55 383.73
  A 0.58 0.57 -4.9 0 1 134.21 384.28
  C 134.38 388.95 132.41 397.33 140.39 396.13
  A 1.09 1.09 0.0 0 0 141.12 394.41
  Q 140.29 393.26 138.74 393.52
  A 1.26 1.26 0.0 0 1 137.28 392.29
  L 137.19 384.43
  Q 137.19 383.80 137.81 383.82
  L 140.81 383.88
  A 0.38 0.38 0.0 0 0 141.13 383.73
  Q 141.96 382.75 141.18 381.60
  Q 140.94 381.25 140.52 381.25
  L 137.63 381.25
  A 0.60 0.60 0.0 0 1 137.03 380.63
  L 137.17 377.05
  Q 137.20 376.34 136.61 375.94
  Q 135.61 375.24 134.62 375.84
  A 0.76 0.74 -15.8 0 0 134.25 376.48
  L 134.25 380.75
  Q 134.25 381.25 133.75 381.25
  Z
  M 102.76 381.67
  L 102.12 381.03
  A 1.22 1.22 0.0 0 0 100.03 381.88
  Q 99.95 388.13 100.02 394.70
  Q 100.03 395.67 100.48 396.02
  Q 101.04 396.47 102.04 396.21
  A 0.96 0.96 0.0 0 0 102.75 395.28
  L 102.75 385.99
  Q 102.75 385.48 103.05 385.06
  Q 105.09 382.20 108.34 383.96
  A 0.65 0.64 -68.0 0 0 109.26 383.56
  L 109.64 382.22
  Q 109.87 381.40 109.08 381.11
  Q 105.96 379.94 103.64 381.73
  Q 103.18 382.09 102.76 381.67
  Z
  M 128.59 388.56
  A 7.87 7.87 0.0 0 0 120.72 380.69
  A 7.87 7.87 0.0 0 0 112.85 388.56
  A 7.87 7.87 0.0 0 0 120.72 396.43
  A 7.87 7.87 0.0 0 0 128.59 388.56
  Z
  M 148.67 389.54
  Q 152.89 389.46 157.50 389.38
  Q 159.48 389.35 159.71 387.51
  C 160.56 380.60 151.32 379.03 147.30 382.84
  C 143.65 386.28 144.47 392.49 148.58 395.18
  C 151.08 396.81 156.64 397.11 158.75 394.52
  A 1.13 1.13 0.0 0 0 157.32 392.82
  Q 151.48 396.09 148.04 390.70
  A 0.76 0.75 -16.8 0 1 148.67 389.54
  Z
  M 175.49 382.44
  Q 175.82 380.82 174.10 380.74
  A 1.29 1.29 0.0 0 0 172.75 382.03
  L 172.75 395.24
  Q 172.75 395.77 173.26 395.90
  L 174.66 396.28
  Q 175.36 396.47 175.42 395.75
  Q 175.75 391.91 175.78 388.08
  C 175.80 384.22 179.43 381.84 182.67 384.35
  C 185.55 386.59 182.75 394.72 184.49 396.03
  Q 185.11 396.50 186.18 396.17
  A 0.77 0.76 -7.6 0 0 186.72 395.47
  C 186.90 390.16 188.17 380.17 179.58 380.86
  C 178.13 380.98 177.16 381.99 176.02 382.78
  Q 175.33 383.26 175.49 382.44
  Z
  M 214.24 381.93
  A 1.12 1.12 0.0 0 0 213.12 380.81
  L 212.62 380.81
  A 1.12 1.12 0.0 0 0 211.50 381.93
  L 211.50 395.15
  A 1.12 1.12 0.0 0 0 212.62 396.27
  L 213.12 396.27
  A 1.12 1.12 0.0 0 0 214.24 395.15
  L 214.24 381.93
  Z
  M 222.25 382.46
  L 222.25 381.53
  Q 222.25 380.79 221.52 380.86
  L 220.34 380.96
  Q 219.76 381.01 219.76 381.59
  Q 219.73 388.20 219.75 394.82
  Q 219.76 395.78 220.13 396.08
  Q 220.65 396.49 221.73 396.15
  Q 222.48 395.92 222.49 395.13
  C 222.51 392.53 221.89 387.32 223.32 385.24
  C 225.26 382.39 230.96 383.18 230.78 386.99
  Q 230.59 391.25 230.93 395.18
  A 1.36 1.36 0.0 0 0 233.64 395.20
  C 234.11 390.72 234.62 381.60 228.24 380.75
  Q 225.49 380.39 222.82 382.71
  Q 222.25 383.21 222.25 382.46
  Z
  M 249.07 382.42
  C 239.63 376.04 232.94 391.92 243.50 395.77
  Q 246.50 396.86 249.30 394.26
  Q 249.67 393.91 249.78 394.41
  C 250.86 399.46 245.47 401.78 241.81 398.54
  Q 241.27 398.06 240.72 398.53
  L 239.84 399.29
  A 0.59 0.59 0.0 0 0 239.76 400.11
  C 242.55 403.51 248.55 403.32 251.05 400.04
  C 253.74 396.52 252.79 385.95 252.46 381.57
  A 1.06 1.06 0.0 0 0 250.54 381.04
  L 249.62 382.32
  Q 249.40 382.64 249.07 382.42
  Z
  M 292.80 388.58
  A 7.88 7.88 0.0 0 0 284.92 380.70
  A 7.88 7.88 0.0 0 0 277.04 388.58
  A 7.88 7.88 0.0 0 0 284.92 396.46
  A 7.88 7.88 0.0 0 0 292.80 388.58
  Z
  M 299.75 382.25
  Q 299.92 380.64 298.18 380.77
  A 1.01 1.00 -2.2 0 0 297.25 381.77
  L 297.25 395.47
  A 0.71 0.71 0.0 0 0 297.86 396.17
  L 298.59 396.27
  A 1.22 1.22 0.0 0 0 299.98 395.06
  C 299.98 392.50 299.14 384.99 302.17 383.87
  C 309.82 381.02 305.38 393.05 307.25 395.78
  Q 307.79 396.57 309.16 396.17
  Q 309.77 396.00 309.76 395.37
  C 309.70 392.31 308.66 384.74 312.65 383.66
  C 318.29 382.14 316.66 392.17 316.87 395.55
  A 0.62 0.60 3.1 0 0 317.39 396.11
  L 318.62 396.29
  Q 319.41 396.41 319.44 395.61
  C 319.63 389.28 321.04 379.39 312.30 381.01
  Q 311.24 381.21 309.45 383.48
  Q 309.10 383.93 308.76 383.48
  Q 305.07 378.54 300.32 382.55
  A 0.35 0.35 0.0 0 1 299.75 382.25
  Z
  M 167.25 381.88
  A 0.91 0.91 0.0 0 0 166.34 380.97
  L 165.42 380.97
  A 0.91 0.91 0.0 0 0 164.51 381.88
  L 164.51 395.30
  A 0.91 0.91 0.0 0 0 165.42 396.21
  L 166.34 396.21
  A 0.91 0.91 0.0 0 0 167.25 395.30
  L 167.25 381.88
  Z"
/>
<ellipse fill="#ffffff" cx="0.00" cy="0.00" transform="translate(165.91,375.34) rotate(60.1)" rx="1.76" ry="1.69"/>
<ellipse fill="#ffffff" cx="0.00" cy="0.00" transform="translate(212.78,375.33) rotate(75.0)" rx="1.71" ry="1.62"/>
<path fill="#ffffff" d="
  M 270.20 382.47
  L 270.28 374.52
  Q 270.28 374.03 270.77 373.94
  L 271.90 373.75
  Q 272.75 373.61 272.75 374.47
  L 272.75 395.57
  A 0.65 0.64 89.6 0 1 272.12 396.22
  L 270.87 396.26
  Q 270.44 396.27 270.33 395.85
  L 270.06 394.80
  Q 269.87 394.06 269.30 394.56
  C 263.63 399.49 256.81 393.68 257.88 386.91
  C 258.74 381.40 264.99 378.92 269.56 382.76
  Q 270.19 383.29 270.20 382.47
  Z
  M 265.4915 393.5627
  A 5.02 4.74 86.9 0 0 269.9531 388.2937
  A 5.02 4.74 86.9 0 0 264.9485 383.5373
  A 5.02 4.74 86.9 0 0 260.4869 388.8063
  A 5.02 4.74 86.9 0 0 265.4915 393.5627
  Z"
/>
<path fill="#ffffff" d="
  M 82.50 389.00
  L 82.50 395.25
  A 1.00 1.00 0.0 0 1 81.50 396.25
  L 80.42 396.25
  A 0.83 0.83 0.0 0 1 79.59 395.42
  L 79.66 374.88
  Q 79.66 374.20 80.33 374.14
  Q 85.88 373.65 89.33 374.11
  C 95.82 374.98 97.33 383.93 92.10 387.29
  C 89.68 388.85 86.00 388.59 83.04 388.48
  Q 82.50 388.46 82.50 389.00
  Z
  M 82.49 377.41
  L 82.49 385.07
  A 0.43 0.43 0.0 0 0 82.92 385.50
  L 88.22 385.50
  A 4.05 3.85 -0.0 0 0 92.27 381.65
  L 92.27 380.83
  A 4.05 3.85 0.0 0 0 88.22 376.98
  L 82.92 376.98
  A 0.43 0.43 0.0 0 0 82.49 377.41
  Z"
/>
<path fill="#ffffff" d="
  M 195.00 387.95
  L 195.00 395.22
  A 1.08 1.08 0.0 0 1 193.73 396.28
  L 192.50 396.05
  Q 192.00 395.96 192.00 395.45
  L 192.00 375.51
  A 1.52 1.52 0.0 0 1 193.38 374.00
  Q 194.15 373.93 194.62 374.35
  Q 194.97 374.66 194.98 375.39
  Q 195.03 378.79 194.99 382.19
  A 0.43 0.43 0.0 0 0 195.72 382.51
  L 204.87 374.01
  A 0.82 0.82 0.0 0 1 206.04 374.07
  L 206.92 375.07
  Q 207.41 375.62 206.87 376.11
  L 197.43 384.65
  A 0.60 0.60 0.0 0 0 197.43 385.54
  L 206.91 394.23
  A 0.77 0.76 -46.8 0 1 206.94 395.33
  L 206.06 396.25
  Q 205.56 396.78 205.02 396.29
  L 195.67 387.66
  Q 195.00 387.04 195.00 387.95
  Z"
/>
<path fill="#ffffff" d="
  M 134.25 380.75
  L 134.25 376.48
  A 0.76 0.74 -15.8 0 1 134.62 375.84
  Q 135.61 375.24 136.61 375.94
  Q 137.20 376.34 137.17 377.05
  L 137.03 380.63
  A 0.60 0.60 0.0 0 0 137.63 381.25
  L 140.52 381.25
  Q 140.94 381.25 141.18 381.60
  Q 141.96 382.75 141.13 383.73
  A 0.38 0.38 0.0 0 1 140.81 383.88
  L 137.81 383.82
  Q 137.19 383.80 137.19 384.43
  L 137.28 392.29
  A 1.26 1.26 0.0 0 0 138.74 393.52
  Q 140.29 393.26 141.12 394.41
  A 1.09 1.09 0.0 0 1 140.39 396.13
  C 132.41 397.33 134.38 388.95 134.21 384.28
  A 0.58 0.57 -4.9 0 0 133.55 383.73
  L 132.36 383.91
  Q 131.50 384.03 131.50 383.17
  L 131.50 381.88
  Q 131.50 381.25 132.12 381.25
  L 133.75 381.25
  Q 134.25 381.25 134.25 380.75
  Z"
/>
<path fill="#ff6600" d="
  M 82.49 377.41
  A 0.43 0.43 0.0 0 1 82.92 376.98
  L 88.22 376.98
  A 4.05 3.85 0.0 0 1 92.27 380.83
  L 92.27 381.65
  A 4.05 3.85 0.0 0 1 88.22 385.50
  L 82.92 385.50
  A 0.43 0.43 0.0 0 1 82.49 385.07
  L 82.49 377.41
  Z"
/>
<path fill="#ffffff" d="
  M 103.64 381.73
  Q 105.96 379.94 109.08 381.11
  Q 109.87 381.40 109.64 382.22
  L 109.26 383.56
  A 0.65 0.64 -68.0 0 1 108.34 383.96
  Q 105.09 382.20 103.05 385.06
  Q 102.75 385.48 102.75 385.99
  L 102.75 395.28
  A 0.96 0.96 0.0 0 1 102.04 396.21
  Q 101.04 396.47 100.48 396.02
  Q 100.03 395.67 100.02 394.70
  Q 99.95 388.13 100.03 381.88
  A 1.22 1.22 0.0 0 1 102.12 381.03
  L 102.76 381.67
  Q 103.18 382.09 103.64 381.73
  Z"
/>
<path fill="#ffffff" d="
  M 128.59 388.56
  A 7.87 7.87 0.0 0 1 120.72 396.43
  A 7.87 7.87 0.0 0 1 112.85 388.56
  A 7.87 7.87 0.0 0 1 120.72 380.69
  A 7.87 7.87 0.0 0 1 128.59 388.56
  Z
  M 125.75 388.54
  A 5.05 5.05 0.0 0 0 120.70 383.49
  A 5.05 5.05 0.0 0 0 115.65 388.54
  A 5.05 5.05 0.0 0 0 120.70 393.59
  A 5.05 5.05 0.0 0 0 125.75 388.54
  Z"
/>
<path fill="#ffffff" d="
  M 148.67 389.54
  A 0.76 0.75 -16.8 0 0 148.04 390.70
  Q 151.48 396.09 157.32 392.82
  A 1.13 1.13 0.0 0 1 158.75 394.52
  C 156.64 397.11 151.08 396.81 148.58 395.18
  C 144.47 392.49 143.65 386.28 147.30 382.84
  C 151.32 379.03 160.56 380.60 159.71 387.51
  Q 159.48 389.35 157.50 389.38
  Q 152.89 389.46 148.67 389.54
  Z
  M 148.32 387.55
  L 157.13 387.39
  A 0.17 0.17 0.0 0 0 157.30 387.22
  L 157.30 387.15
  A 3.90 3.74 -1.0 0 0 153.34 383.48
  L 151.98 383.50
  A 3.90 3.74 -1.0 0 0 148.14 387.31
  L 148.14 387.38
  A 0.17 0.17 0.0 0 0 148.32 387.55
  Z"
/>
<path fill="#ffffff" d="
  M 176.02 382.78
  C 177.16 381.99 178.13 380.98 179.58 380.86
  C 188.17 380.17 186.90 390.16 186.72 395.47
  A 0.77 0.76 -7.6 0 1 186.18 396.17
  Q 185.11 396.50 184.49 396.03
  C 182.75 394.72 185.55 386.59 182.67 384.35
  C 179.43 381.84 175.80 384.22 175.78 388.08
  Q 175.75 391.91 175.42 395.75
  Q 175.36 396.47 174.66 396.28
  L 173.26 395.90
  Q 172.75 395.77 172.75 395.24
  L 172.75 382.03
  A 1.29 1.29 0.0 0 1 174.10 380.74
  Q 175.82 380.82 175.49 382.44
  Q 175.33 383.26 176.02 382.78
  Z"
/>
<rect fill="#ffffff" x="211.50" y="380.81" width="2.74" height="15.46" rx="1.12"/>
<path fill="#ffffff" d="
  M 222.82 382.71
  Q 225.49 380.39 228.24 380.75
  C 234.62 381.60 234.11 390.72 233.64 395.20
  A 1.36 1.36 0.0 0 1 230.93 395.18
  Q 230.59 391.25 230.78 386.99
  C 230.96 383.18 225.26 382.39 223.32 385.24
  C 221.89 387.32 222.51 392.53 222.49 395.13
  Q 222.48 395.92 221.73 396.15
  Q 220.65 396.49 220.13 396.08
  Q 219.76 395.78 219.75 394.82
  Q 219.73 388.20 219.76 381.59
  Q 219.76 381.01 220.34 380.96
  L 221.52 380.86
  Q 222.25 380.79 222.25 381.53
  L 222.25 382.46
  Q 222.25 383.21 222.82 382.71
  Z"
/>
<path fill="#ffffff" d="
  M 249.62 382.32
  L 250.54 381.04
  A 1.06 1.06 0.0 0 1 252.46 381.57
  C 252.79 385.95 253.74 396.52 251.05 400.04
  C 248.55 403.32 242.55 403.51 239.76 400.11
  A 0.59 0.59 0.0 0 1 239.84 399.29
  L 240.72 398.53
  Q 241.27 398.06 241.81 398.54
  C 245.47 401.78 250.86 399.46 249.78 394.41
  Q 249.67 393.91 249.30 394.26
  Q 246.50 396.86 243.50 395.77
  C 232.94 391.92 239.63 376.04 249.07 382.42
  Q 249.40 382.64 249.62 382.32
  Z
  M 245.5035 393.3273
  A 4.93 4.45 88.1 0 0 249.7876 388.2525
  A 4.93 4.45 88.1 0 0 245.1765 383.4727
  A 4.93 4.45 88.1 0 0 240.8924 388.5475
  A 4.93 4.45 88.1 0 0 245.5035 393.3273
  Z"
/>
<path fill="#ffffff" d="
  M 292.80 388.58
  A 7.88 7.88 0.0 0 1 284.92 396.46
  A 7.88 7.88 0.0 0 1 277.04 388.58
  A 7.88 7.88 0.0 0 1 284.92 380.70
  A 7.88 7.88 0.0 0 1 292.80 388.58
  Z
  M 289.93 388.57
  A 5.06 5.06 0.0 0 0 284.87 383.51
  A 5.06 5.06 0.0 0 0 279.81 388.57
  A 5.06 5.06 0.0 0 0 284.87 393.63
  A 5.06 5.06 0.0 0 0 289.93 388.57
  Z"
/>
<path fill="#ffffff" d="
  M 299.75 382.25
  A 0.35 0.35 0.0 0 0 300.32 382.55
  Q 305.07 378.54 308.76 383.48
  Q 309.10 383.93 309.45 383.48
  Q 311.24 381.21 312.30 381.01
  C 321.04 379.39 319.63 389.28 319.44 395.61
  Q 319.41 396.41 318.62 396.29
  L 317.39 396.11
  A 0.62 0.60 3.1 0 1 316.87 395.55
  C 316.66 392.17 318.29 382.14 312.65 383.66
  C 308.66 384.74 309.70 392.31 309.76 395.37
  Q 309.77 396.00 309.16 396.17
  Q 307.79 396.57 307.25 395.78
  C 305.38 393.05 309.82 381.02 302.17 383.87
  C 299.14 384.99 299.98 392.50 299.98 395.06
  A 1.22 1.22 0.0 0 1 298.59 396.27
  L 297.86 396.17
  A 0.71 0.71 0.0 0 1 297.25 395.47
  L 297.25 381.77
  A 1.01 1.00 -2.2 0 1 298.18 380.77
  Q 299.92 380.64 299.75 382.25
  Z"
/>
<rect fill="#ffffff" x="164.51" y="380.97" width="2.74" height="15.24" rx="0.91"/>
<circle fill="#ff6600" cx="120.70" cy="388.54" r="5.05"/>
<path fill="#ff6600" d="
  M 148.32 387.55
  A 0.17 0.17 0.0 0 1 148.14 387.38
  L 148.14 387.31
  A 3.90 3.74 -1.0 0 1 151.98 383.50
  L 153.34 383.48
  A 3.90 3.74 -1.0 0 1 157.30 387.15
  L 157.30 387.22
  A 0.17 0.17 0.0 0 1 157.13 387.39
  L 148.32 387.55
  Z"
/>
<ellipse fill="#ff6600" cx="0.00" cy="0.00" transform="translate(245.34,388.40) rotate(88.1)" rx="4.93" ry="4.45"/>
<ellipse fill="#ff6600" cx="0.00" cy="0.00" transform="translate(265.22,388.55) rotate(86.9)" rx="5.02" ry="4.74"/>
<circle fill="#ff6600" cx="284.87" cy="388.57" r="5.06"/>
</svg>
